G04 EAGLE Gerber RS-274X export*
G75*
%MOMM*%
%FSLAX34Y34*%
%LPD*%
%INSoldermask Bottom*%
%IPPOS*%
%AMOC8*
5,1,8,0,0,1.08239X$1,22.5*%
G01*
%ADD10C,0.838200*%
%ADD11C,3.453200*%
%ADD12C,2.753200*%
%ADD13C,1.703200*%
%ADD14C,3.530600*%
%ADD15C,2.082800*%
%ADD16C,3.505200*%
%ADD17R,1.473200X0.863600*%
%ADD18R,0.863600X1.473200*%
%ADD19C,1.203200*%
%ADD20C,1.270000*%

G36*
X476315Y835672D02*
X476315Y835672D01*
X476381Y835674D01*
X476424Y835692D01*
X476471Y835700D01*
X476528Y835734D01*
X476588Y835759D01*
X476623Y835790D01*
X476664Y835815D01*
X476706Y835866D01*
X476754Y835910D01*
X476776Y835952D01*
X476805Y835989D01*
X476826Y836051D01*
X476857Y836110D01*
X476865Y836164D01*
X476877Y836201D01*
X476876Y836241D01*
X476884Y836295D01*
X476884Y840105D01*
X476873Y840170D01*
X476871Y840236D01*
X476853Y840279D01*
X476845Y840326D01*
X476811Y840383D01*
X476786Y840443D01*
X476755Y840478D01*
X476730Y840519D01*
X476679Y840561D01*
X476635Y840609D01*
X476593Y840631D01*
X476556Y840660D01*
X476494Y840681D01*
X476435Y840712D01*
X476381Y840720D01*
X476344Y840732D01*
X476304Y840731D01*
X476250Y840739D01*
X473710Y840739D01*
X473645Y840728D01*
X473579Y840726D01*
X473536Y840708D01*
X473489Y840700D01*
X473432Y840666D01*
X473372Y840641D01*
X473337Y840610D01*
X473296Y840585D01*
X473255Y840534D01*
X473206Y840490D01*
X473184Y840448D01*
X473155Y840411D01*
X473134Y840349D01*
X473103Y840290D01*
X473095Y840236D01*
X473083Y840199D01*
X473083Y840195D01*
X473083Y840194D01*
X473084Y840159D01*
X473076Y840105D01*
X473076Y836295D01*
X473087Y836230D01*
X473089Y836164D01*
X473107Y836121D01*
X473115Y836074D01*
X473149Y836017D01*
X473174Y835957D01*
X473205Y835922D01*
X473230Y835881D01*
X473281Y835840D01*
X473325Y835791D01*
X473367Y835769D01*
X473404Y835740D01*
X473466Y835719D01*
X473525Y835688D01*
X473579Y835680D01*
X473616Y835668D01*
X473656Y835669D01*
X473710Y835661D01*
X476250Y835661D01*
X476315Y835672D01*
G37*
G36*
X191835Y835672D02*
X191835Y835672D01*
X191901Y835674D01*
X191944Y835692D01*
X191991Y835700D01*
X192048Y835734D01*
X192108Y835759D01*
X192143Y835790D01*
X192184Y835815D01*
X192226Y835866D01*
X192274Y835910D01*
X192296Y835952D01*
X192325Y835989D01*
X192346Y836051D01*
X192377Y836110D01*
X192385Y836164D01*
X192397Y836201D01*
X192396Y836241D01*
X192404Y836295D01*
X192404Y840105D01*
X192393Y840170D01*
X192391Y840236D01*
X192373Y840279D01*
X192365Y840326D01*
X192331Y840383D01*
X192306Y840443D01*
X192275Y840478D01*
X192250Y840519D01*
X192199Y840561D01*
X192155Y840609D01*
X192113Y840631D01*
X192076Y840660D01*
X192014Y840681D01*
X191955Y840712D01*
X191901Y840720D01*
X191864Y840732D01*
X191824Y840731D01*
X191770Y840739D01*
X189230Y840739D01*
X189165Y840728D01*
X189099Y840726D01*
X189056Y840708D01*
X189009Y840700D01*
X188952Y840666D01*
X188892Y840641D01*
X188857Y840610D01*
X188816Y840585D01*
X188775Y840534D01*
X188726Y840490D01*
X188704Y840448D01*
X188675Y840411D01*
X188654Y840349D01*
X188623Y840290D01*
X188615Y840236D01*
X188603Y840199D01*
X188603Y840195D01*
X188603Y840194D01*
X188604Y840159D01*
X188596Y840105D01*
X188596Y836295D01*
X188607Y836230D01*
X188609Y836164D01*
X188627Y836121D01*
X188635Y836074D01*
X188669Y836017D01*
X188694Y835957D01*
X188725Y835922D01*
X188750Y835881D01*
X188801Y835840D01*
X188845Y835791D01*
X188887Y835769D01*
X188924Y835740D01*
X188986Y835719D01*
X189045Y835688D01*
X189099Y835680D01*
X189136Y835668D01*
X189176Y835669D01*
X189230Y835661D01*
X191770Y835661D01*
X191835Y835672D01*
G37*
G36*
X1045275Y835672D02*
X1045275Y835672D01*
X1045341Y835674D01*
X1045384Y835692D01*
X1045431Y835700D01*
X1045488Y835734D01*
X1045548Y835759D01*
X1045583Y835790D01*
X1045624Y835815D01*
X1045666Y835866D01*
X1045714Y835910D01*
X1045736Y835952D01*
X1045765Y835989D01*
X1045786Y836051D01*
X1045817Y836110D01*
X1045825Y836164D01*
X1045837Y836201D01*
X1045836Y836241D01*
X1045844Y836295D01*
X1045844Y840105D01*
X1045833Y840170D01*
X1045831Y840236D01*
X1045813Y840279D01*
X1045805Y840326D01*
X1045771Y840383D01*
X1045746Y840443D01*
X1045715Y840478D01*
X1045690Y840519D01*
X1045639Y840561D01*
X1045595Y840609D01*
X1045553Y840631D01*
X1045516Y840660D01*
X1045454Y840681D01*
X1045395Y840712D01*
X1045341Y840720D01*
X1045304Y840732D01*
X1045264Y840731D01*
X1045210Y840739D01*
X1042670Y840739D01*
X1042605Y840728D01*
X1042539Y840726D01*
X1042496Y840708D01*
X1042449Y840700D01*
X1042392Y840666D01*
X1042332Y840641D01*
X1042297Y840610D01*
X1042256Y840585D01*
X1042215Y840534D01*
X1042166Y840490D01*
X1042144Y840448D01*
X1042115Y840411D01*
X1042094Y840349D01*
X1042063Y840290D01*
X1042055Y840236D01*
X1042043Y840199D01*
X1042043Y840195D01*
X1042043Y840194D01*
X1042044Y840159D01*
X1042036Y840105D01*
X1042036Y836295D01*
X1042047Y836230D01*
X1042049Y836164D01*
X1042067Y836121D01*
X1042075Y836074D01*
X1042109Y836017D01*
X1042134Y835957D01*
X1042165Y835922D01*
X1042190Y835881D01*
X1042241Y835840D01*
X1042285Y835791D01*
X1042327Y835769D01*
X1042364Y835740D01*
X1042426Y835719D01*
X1042485Y835688D01*
X1042539Y835680D01*
X1042576Y835668D01*
X1042616Y835669D01*
X1042670Y835661D01*
X1045210Y835661D01*
X1045275Y835672D01*
G37*
G36*
X760795Y835672D02*
X760795Y835672D01*
X760861Y835674D01*
X760904Y835692D01*
X760951Y835700D01*
X761008Y835734D01*
X761068Y835759D01*
X761103Y835790D01*
X761144Y835815D01*
X761186Y835866D01*
X761234Y835910D01*
X761256Y835952D01*
X761285Y835989D01*
X761306Y836051D01*
X761337Y836110D01*
X761345Y836164D01*
X761357Y836201D01*
X761356Y836241D01*
X761364Y836295D01*
X761364Y840105D01*
X761353Y840170D01*
X761351Y840236D01*
X761333Y840279D01*
X761325Y840326D01*
X761291Y840383D01*
X761266Y840443D01*
X761235Y840478D01*
X761210Y840519D01*
X761159Y840561D01*
X761115Y840609D01*
X761073Y840631D01*
X761036Y840660D01*
X760974Y840681D01*
X760915Y840712D01*
X760861Y840720D01*
X760824Y840732D01*
X760784Y840731D01*
X760730Y840739D01*
X758190Y840739D01*
X758125Y840728D01*
X758059Y840726D01*
X758016Y840708D01*
X757969Y840700D01*
X757912Y840666D01*
X757852Y840641D01*
X757817Y840610D01*
X757776Y840585D01*
X757735Y840534D01*
X757686Y840490D01*
X757664Y840448D01*
X757635Y840411D01*
X757614Y840349D01*
X757583Y840290D01*
X757575Y840236D01*
X757563Y840199D01*
X757563Y840195D01*
X757563Y840194D01*
X757564Y840159D01*
X757556Y840105D01*
X757556Y836295D01*
X757567Y836230D01*
X757569Y836164D01*
X757587Y836121D01*
X757595Y836074D01*
X757629Y836017D01*
X757654Y835957D01*
X757685Y835922D01*
X757710Y835881D01*
X757761Y835840D01*
X757805Y835791D01*
X757847Y835769D01*
X757884Y835740D01*
X757946Y835719D01*
X758005Y835688D01*
X758059Y835680D01*
X758096Y835668D01*
X758136Y835669D01*
X758190Y835661D01*
X760730Y835661D01*
X760795Y835672D01*
G37*
G36*
X1045275Y137172D02*
X1045275Y137172D01*
X1045341Y137174D01*
X1045384Y137192D01*
X1045431Y137200D01*
X1045488Y137234D01*
X1045548Y137259D01*
X1045583Y137290D01*
X1045624Y137315D01*
X1045666Y137366D01*
X1045714Y137410D01*
X1045736Y137452D01*
X1045765Y137489D01*
X1045786Y137551D01*
X1045817Y137610D01*
X1045825Y137664D01*
X1045837Y137701D01*
X1045836Y137741D01*
X1045844Y137795D01*
X1045844Y141605D01*
X1045833Y141670D01*
X1045831Y141736D01*
X1045813Y141779D01*
X1045805Y141826D01*
X1045771Y141883D01*
X1045746Y141943D01*
X1045715Y141978D01*
X1045690Y142019D01*
X1045639Y142061D01*
X1045595Y142109D01*
X1045553Y142131D01*
X1045516Y142160D01*
X1045454Y142181D01*
X1045395Y142212D01*
X1045341Y142220D01*
X1045304Y142232D01*
X1045264Y142231D01*
X1045210Y142239D01*
X1042670Y142239D01*
X1042605Y142228D01*
X1042539Y142226D01*
X1042496Y142208D01*
X1042449Y142200D01*
X1042392Y142166D01*
X1042332Y142141D01*
X1042297Y142110D01*
X1042256Y142085D01*
X1042215Y142034D01*
X1042166Y141990D01*
X1042144Y141948D01*
X1042115Y141911D01*
X1042094Y141849D01*
X1042063Y141790D01*
X1042055Y141736D01*
X1042043Y141699D01*
X1042043Y141695D01*
X1042043Y141694D01*
X1042044Y141659D01*
X1042036Y141605D01*
X1042036Y137795D01*
X1042047Y137730D01*
X1042049Y137664D01*
X1042067Y137621D01*
X1042075Y137574D01*
X1042109Y137517D01*
X1042134Y137457D01*
X1042165Y137422D01*
X1042190Y137381D01*
X1042241Y137340D01*
X1042285Y137291D01*
X1042327Y137269D01*
X1042364Y137240D01*
X1042426Y137219D01*
X1042485Y137188D01*
X1042539Y137180D01*
X1042576Y137168D01*
X1042616Y137169D01*
X1042670Y137161D01*
X1045210Y137161D01*
X1045275Y137172D01*
G37*
G36*
X760795Y137172D02*
X760795Y137172D01*
X760861Y137174D01*
X760904Y137192D01*
X760951Y137200D01*
X761008Y137234D01*
X761068Y137259D01*
X761103Y137290D01*
X761144Y137315D01*
X761186Y137366D01*
X761234Y137410D01*
X761256Y137452D01*
X761285Y137489D01*
X761306Y137551D01*
X761337Y137610D01*
X761345Y137664D01*
X761357Y137701D01*
X761356Y137741D01*
X761364Y137795D01*
X761364Y141605D01*
X761353Y141670D01*
X761351Y141736D01*
X761333Y141779D01*
X761325Y141826D01*
X761291Y141883D01*
X761266Y141943D01*
X761235Y141978D01*
X761210Y142019D01*
X761159Y142061D01*
X761115Y142109D01*
X761073Y142131D01*
X761036Y142160D01*
X760974Y142181D01*
X760915Y142212D01*
X760861Y142220D01*
X760824Y142232D01*
X760784Y142231D01*
X760730Y142239D01*
X758190Y142239D01*
X758125Y142228D01*
X758059Y142226D01*
X758016Y142208D01*
X757969Y142200D01*
X757912Y142166D01*
X757852Y142141D01*
X757817Y142110D01*
X757776Y142085D01*
X757735Y142034D01*
X757686Y141990D01*
X757664Y141948D01*
X757635Y141911D01*
X757614Y141849D01*
X757583Y141790D01*
X757575Y141736D01*
X757563Y141699D01*
X757563Y141695D01*
X757563Y141694D01*
X757564Y141659D01*
X757556Y141605D01*
X757556Y137795D01*
X757567Y137730D01*
X757569Y137664D01*
X757587Y137621D01*
X757595Y137574D01*
X757629Y137517D01*
X757654Y137457D01*
X757685Y137422D01*
X757710Y137381D01*
X757761Y137340D01*
X757805Y137291D01*
X757847Y137269D01*
X757884Y137240D01*
X757946Y137219D01*
X758005Y137188D01*
X758059Y137180D01*
X758096Y137168D01*
X758136Y137169D01*
X758190Y137161D01*
X760730Y137161D01*
X760795Y137172D01*
G37*
G36*
X476315Y137172D02*
X476315Y137172D01*
X476381Y137174D01*
X476424Y137192D01*
X476471Y137200D01*
X476528Y137234D01*
X476588Y137259D01*
X476623Y137290D01*
X476664Y137315D01*
X476706Y137366D01*
X476754Y137410D01*
X476776Y137452D01*
X476805Y137489D01*
X476826Y137551D01*
X476857Y137610D01*
X476865Y137664D01*
X476877Y137701D01*
X476876Y137741D01*
X476884Y137795D01*
X476884Y141605D01*
X476873Y141670D01*
X476871Y141736D01*
X476853Y141779D01*
X476845Y141826D01*
X476811Y141883D01*
X476786Y141943D01*
X476755Y141978D01*
X476730Y142019D01*
X476679Y142061D01*
X476635Y142109D01*
X476593Y142131D01*
X476556Y142160D01*
X476494Y142181D01*
X476435Y142212D01*
X476381Y142220D01*
X476344Y142232D01*
X476304Y142231D01*
X476250Y142239D01*
X473710Y142239D01*
X473645Y142228D01*
X473579Y142226D01*
X473536Y142208D01*
X473489Y142200D01*
X473432Y142166D01*
X473372Y142141D01*
X473337Y142110D01*
X473296Y142085D01*
X473255Y142034D01*
X473206Y141990D01*
X473184Y141948D01*
X473155Y141911D01*
X473134Y141849D01*
X473103Y141790D01*
X473095Y141736D01*
X473083Y141699D01*
X473083Y141695D01*
X473083Y141694D01*
X473084Y141659D01*
X473076Y141605D01*
X473076Y137795D01*
X473087Y137730D01*
X473089Y137664D01*
X473107Y137621D01*
X473115Y137574D01*
X473149Y137517D01*
X473174Y137457D01*
X473205Y137422D01*
X473230Y137381D01*
X473281Y137340D01*
X473325Y137291D01*
X473367Y137269D01*
X473404Y137240D01*
X473466Y137219D01*
X473525Y137188D01*
X473579Y137180D01*
X473616Y137168D01*
X473656Y137169D01*
X473710Y137161D01*
X476250Y137161D01*
X476315Y137172D01*
G37*
G36*
X191835Y137172D02*
X191835Y137172D01*
X191901Y137174D01*
X191944Y137192D01*
X191991Y137200D01*
X192048Y137234D01*
X192108Y137259D01*
X192143Y137290D01*
X192184Y137315D01*
X192226Y137366D01*
X192274Y137410D01*
X192296Y137452D01*
X192325Y137489D01*
X192346Y137551D01*
X192377Y137610D01*
X192385Y137664D01*
X192397Y137701D01*
X192396Y137741D01*
X192404Y137795D01*
X192404Y141605D01*
X192393Y141670D01*
X192391Y141736D01*
X192373Y141779D01*
X192365Y141826D01*
X192331Y141883D01*
X192306Y141943D01*
X192275Y141978D01*
X192250Y142019D01*
X192199Y142061D01*
X192155Y142109D01*
X192113Y142131D01*
X192076Y142160D01*
X192014Y142181D01*
X191955Y142212D01*
X191901Y142220D01*
X191864Y142232D01*
X191824Y142231D01*
X191770Y142239D01*
X189230Y142239D01*
X189165Y142228D01*
X189099Y142226D01*
X189056Y142208D01*
X189009Y142200D01*
X188952Y142166D01*
X188892Y142141D01*
X188857Y142110D01*
X188816Y142085D01*
X188775Y142034D01*
X188726Y141990D01*
X188704Y141948D01*
X188675Y141911D01*
X188654Y141849D01*
X188623Y141790D01*
X188615Y141736D01*
X188603Y141699D01*
X188603Y141695D01*
X188603Y141694D01*
X188604Y141659D01*
X188596Y141605D01*
X188596Y137795D01*
X188607Y137730D01*
X188609Y137664D01*
X188627Y137621D01*
X188635Y137574D01*
X188669Y137517D01*
X188694Y137457D01*
X188725Y137422D01*
X188750Y137381D01*
X188801Y137340D01*
X188845Y137291D01*
X188887Y137269D01*
X188924Y137240D01*
X188986Y137219D01*
X189045Y137188D01*
X189099Y137180D01*
X189136Y137168D01*
X189176Y137169D01*
X189230Y137161D01*
X191770Y137161D01*
X191835Y137172D01*
G37*
G36*
X918910Y785507D02*
X918910Y785507D01*
X918976Y785509D01*
X919019Y785527D01*
X919066Y785535D01*
X919123Y785569D01*
X919183Y785594D01*
X919218Y785625D01*
X919259Y785650D01*
X919301Y785701D01*
X919349Y785745D01*
X919371Y785787D01*
X919400Y785824D01*
X919421Y785886D01*
X919452Y785945D01*
X919460Y785999D01*
X919472Y786036D01*
X919471Y786076D01*
X919479Y786130D01*
X919479Y788670D01*
X919468Y788735D01*
X919466Y788801D01*
X919448Y788844D01*
X919440Y788891D01*
X919406Y788948D01*
X919381Y789008D01*
X919350Y789043D01*
X919325Y789084D01*
X919274Y789126D01*
X919230Y789174D01*
X919188Y789196D01*
X919151Y789225D01*
X919089Y789246D01*
X919030Y789277D01*
X918976Y789285D01*
X918939Y789297D01*
X918899Y789296D01*
X918845Y789304D01*
X915035Y789304D01*
X914970Y789293D01*
X914904Y789291D01*
X914861Y789273D01*
X914814Y789265D01*
X914757Y789231D01*
X914697Y789206D01*
X914662Y789175D01*
X914621Y789150D01*
X914580Y789099D01*
X914531Y789055D01*
X914509Y789013D01*
X914480Y788976D01*
X914459Y788914D01*
X914428Y788855D01*
X914420Y788801D01*
X914408Y788764D01*
X914408Y788761D01*
X914409Y788724D01*
X914401Y788670D01*
X914401Y786130D01*
X914412Y786065D01*
X914414Y785999D01*
X914432Y785956D01*
X914440Y785909D01*
X914474Y785852D01*
X914499Y785792D01*
X914530Y785757D01*
X914555Y785716D01*
X914606Y785675D01*
X914650Y785626D01*
X914692Y785604D01*
X914729Y785575D01*
X914791Y785554D01*
X914850Y785523D01*
X914904Y785515D01*
X914941Y785503D01*
X914981Y785504D01*
X915035Y785496D01*
X918845Y785496D01*
X918910Y785507D01*
G37*
G36*
X634430Y785507D02*
X634430Y785507D01*
X634496Y785509D01*
X634539Y785527D01*
X634586Y785535D01*
X634643Y785569D01*
X634703Y785594D01*
X634738Y785625D01*
X634779Y785650D01*
X634821Y785701D01*
X634869Y785745D01*
X634891Y785787D01*
X634920Y785824D01*
X634941Y785886D01*
X634972Y785945D01*
X634980Y785999D01*
X634992Y786036D01*
X634991Y786076D01*
X634999Y786130D01*
X634999Y788670D01*
X634988Y788735D01*
X634986Y788801D01*
X634968Y788844D01*
X634960Y788891D01*
X634926Y788948D01*
X634901Y789008D01*
X634870Y789043D01*
X634845Y789084D01*
X634794Y789126D01*
X634750Y789174D01*
X634708Y789196D01*
X634671Y789225D01*
X634609Y789246D01*
X634550Y789277D01*
X634496Y789285D01*
X634459Y789297D01*
X634419Y789296D01*
X634365Y789304D01*
X630555Y789304D01*
X630490Y789293D01*
X630424Y789291D01*
X630381Y789273D01*
X630334Y789265D01*
X630277Y789231D01*
X630217Y789206D01*
X630182Y789175D01*
X630141Y789150D01*
X630100Y789099D01*
X630051Y789055D01*
X630029Y789013D01*
X630000Y788976D01*
X629979Y788914D01*
X629948Y788855D01*
X629940Y788801D01*
X629928Y788764D01*
X629928Y788761D01*
X629929Y788724D01*
X629921Y788670D01*
X629921Y786130D01*
X629932Y786065D01*
X629934Y785999D01*
X629952Y785956D01*
X629960Y785909D01*
X629994Y785852D01*
X630019Y785792D01*
X630050Y785757D01*
X630075Y785716D01*
X630126Y785675D01*
X630170Y785626D01*
X630212Y785604D01*
X630249Y785575D01*
X630311Y785554D01*
X630370Y785523D01*
X630424Y785515D01*
X630461Y785503D01*
X630501Y785504D01*
X630555Y785496D01*
X634365Y785496D01*
X634430Y785507D01*
G37*
G36*
X349950Y785507D02*
X349950Y785507D01*
X350016Y785509D01*
X350059Y785527D01*
X350106Y785535D01*
X350163Y785569D01*
X350223Y785594D01*
X350258Y785625D01*
X350299Y785650D01*
X350341Y785701D01*
X350389Y785745D01*
X350411Y785787D01*
X350440Y785824D01*
X350461Y785886D01*
X350492Y785945D01*
X350500Y785999D01*
X350512Y786036D01*
X350511Y786076D01*
X350519Y786130D01*
X350519Y788670D01*
X350508Y788735D01*
X350506Y788801D01*
X350488Y788844D01*
X350480Y788891D01*
X350446Y788948D01*
X350421Y789008D01*
X350390Y789043D01*
X350365Y789084D01*
X350314Y789126D01*
X350270Y789174D01*
X350228Y789196D01*
X350191Y789225D01*
X350129Y789246D01*
X350070Y789277D01*
X350016Y789285D01*
X349979Y789297D01*
X349939Y789296D01*
X349885Y789304D01*
X346075Y789304D01*
X346010Y789293D01*
X345944Y789291D01*
X345901Y789273D01*
X345854Y789265D01*
X345797Y789231D01*
X345737Y789206D01*
X345702Y789175D01*
X345661Y789150D01*
X345620Y789099D01*
X345571Y789055D01*
X345549Y789013D01*
X345520Y788976D01*
X345499Y788914D01*
X345468Y788855D01*
X345460Y788801D01*
X345448Y788764D01*
X345448Y788761D01*
X345449Y788724D01*
X345441Y788670D01*
X345441Y786130D01*
X345452Y786065D01*
X345454Y785999D01*
X345472Y785956D01*
X345480Y785909D01*
X345514Y785852D01*
X345539Y785792D01*
X345570Y785757D01*
X345595Y785716D01*
X345646Y785675D01*
X345690Y785626D01*
X345732Y785604D01*
X345769Y785575D01*
X345831Y785554D01*
X345890Y785523D01*
X345944Y785515D01*
X345981Y785503D01*
X346021Y785504D01*
X346075Y785496D01*
X349885Y785496D01*
X349950Y785507D01*
G37*
G36*
X65470Y785507D02*
X65470Y785507D01*
X65536Y785509D01*
X65579Y785527D01*
X65626Y785535D01*
X65683Y785569D01*
X65743Y785594D01*
X65778Y785625D01*
X65819Y785650D01*
X65861Y785701D01*
X65909Y785745D01*
X65931Y785787D01*
X65960Y785824D01*
X65981Y785886D01*
X66012Y785945D01*
X66020Y785999D01*
X66032Y786036D01*
X66031Y786076D01*
X66039Y786130D01*
X66039Y788670D01*
X66028Y788735D01*
X66026Y788801D01*
X66008Y788844D01*
X66000Y788891D01*
X65966Y788948D01*
X65941Y789008D01*
X65910Y789043D01*
X65885Y789084D01*
X65834Y789126D01*
X65790Y789174D01*
X65748Y789196D01*
X65711Y789225D01*
X65649Y789246D01*
X65590Y789277D01*
X65536Y789285D01*
X65499Y789297D01*
X65459Y789296D01*
X65405Y789304D01*
X61595Y789304D01*
X61530Y789293D01*
X61464Y789291D01*
X61421Y789273D01*
X61374Y789265D01*
X61317Y789231D01*
X61257Y789206D01*
X61222Y789175D01*
X61181Y789150D01*
X61140Y789099D01*
X61091Y789055D01*
X61069Y789013D01*
X61040Y788976D01*
X61019Y788914D01*
X60988Y788855D01*
X60980Y788801D01*
X60968Y788764D01*
X60968Y788761D01*
X60969Y788724D01*
X60961Y788670D01*
X60961Y786130D01*
X60972Y786065D01*
X60974Y785999D01*
X60992Y785956D01*
X61000Y785909D01*
X61034Y785852D01*
X61059Y785792D01*
X61090Y785757D01*
X61115Y785716D01*
X61166Y785675D01*
X61210Y785626D01*
X61252Y785604D01*
X61289Y785575D01*
X61351Y785554D01*
X61410Y785523D01*
X61464Y785515D01*
X61501Y785503D01*
X61541Y785504D01*
X61595Y785496D01*
X65405Y785496D01*
X65470Y785507D01*
G37*
G36*
X634430Y87007D02*
X634430Y87007D01*
X634496Y87009D01*
X634539Y87027D01*
X634586Y87035D01*
X634643Y87069D01*
X634703Y87094D01*
X634738Y87125D01*
X634779Y87150D01*
X634821Y87201D01*
X634869Y87245D01*
X634891Y87287D01*
X634920Y87324D01*
X634941Y87386D01*
X634972Y87445D01*
X634980Y87499D01*
X634992Y87536D01*
X634991Y87576D01*
X634999Y87630D01*
X634999Y90170D01*
X634988Y90235D01*
X634986Y90301D01*
X634968Y90344D01*
X634960Y90391D01*
X634926Y90448D01*
X634901Y90508D01*
X634870Y90543D01*
X634845Y90584D01*
X634794Y90626D01*
X634750Y90674D01*
X634708Y90696D01*
X634671Y90725D01*
X634609Y90746D01*
X634550Y90777D01*
X634496Y90785D01*
X634459Y90797D01*
X634419Y90796D01*
X634365Y90804D01*
X630555Y90804D01*
X630490Y90793D01*
X630424Y90791D01*
X630381Y90773D01*
X630334Y90765D01*
X630277Y90731D01*
X630217Y90706D01*
X630182Y90675D01*
X630141Y90650D01*
X630100Y90599D01*
X630051Y90555D01*
X630029Y90513D01*
X630000Y90476D01*
X629979Y90414D01*
X629948Y90355D01*
X629940Y90301D01*
X629928Y90264D01*
X629928Y90261D01*
X629929Y90224D01*
X629921Y90170D01*
X629921Y87630D01*
X629932Y87565D01*
X629934Y87499D01*
X629952Y87456D01*
X629960Y87409D01*
X629994Y87352D01*
X630019Y87292D01*
X630050Y87257D01*
X630075Y87216D01*
X630126Y87175D01*
X630170Y87126D01*
X630212Y87104D01*
X630249Y87075D01*
X630311Y87054D01*
X630370Y87023D01*
X630424Y87015D01*
X630461Y87003D01*
X630501Y87004D01*
X630555Y86996D01*
X634365Y86996D01*
X634430Y87007D01*
G37*
G36*
X918910Y87007D02*
X918910Y87007D01*
X918976Y87009D01*
X919019Y87027D01*
X919066Y87035D01*
X919123Y87069D01*
X919183Y87094D01*
X919218Y87125D01*
X919259Y87150D01*
X919301Y87201D01*
X919349Y87245D01*
X919371Y87287D01*
X919400Y87324D01*
X919421Y87386D01*
X919452Y87445D01*
X919460Y87499D01*
X919472Y87536D01*
X919471Y87576D01*
X919479Y87630D01*
X919479Y90170D01*
X919468Y90235D01*
X919466Y90301D01*
X919448Y90344D01*
X919440Y90391D01*
X919406Y90448D01*
X919381Y90508D01*
X919350Y90543D01*
X919325Y90584D01*
X919274Y90626D01*
X919230Y90674D01*
X919188Y90696D01*
X919151Y90725D01*
X919089Y90746D01*
X919030Y90777D01*
X918976Y90785D01*
X918939Y90797D01*
X918899Y90796D01*
X918845Y90804D01*
X915035Y90804D01*
X914970Y90793D01*
X914904Y90791D01*
X914861Y90773D01*
X914814Y90765D01*
X914757Y90731D01*
X914697Y90706D01*
X914662Y90675D01*
X914621Y90650D01*
X914580Y90599D01*
X914531Y90555D01*
X914509Y90513D01*
X914480Y90476D01*
X914459Y90414D01*
X914428Y90355D01*
X914420Y90301D01*
X914408Y90264D01*
X914408Y90261D01*
X914409Y90224D01*
X914401Y90170D01*
X914401Y87630D01*
X914412Y87565D01*
X914414Y87499D01*
X914432Y87456D01*
X914440Y87409D01*
X914474Y87352D01*
X914499Y87292D01*
X914530Y87257D01*
X914555Y87216D01*
X914606Y87175D01*
X914650Y87126D01*
X914692Y87104D01*
X914729Y87075D01*
X914791Y87054D01*
X914850Y87023D01*
X914904Y87015D01*
X914941Y87003D01*
X914981Y87004D01*
X915035Y86996D01*
X918845Y86996D01*
X918910Y87007D01*
G37*
G36*
X349950Y87007D02*
X349950Y87007D01*
X350016Y87009D01*
X350059Y87027D01*
X350106Y87035D01*
X350163Y87069D01*
X350223Y87094D01*
X350258Y87125D01*
X350299Y87150D01*
X350341Y87201D01*
X350389Y87245D01*
X350411Y87287D01*
X350440Y87324D01*
X350461Y87386D01*
X350492Y87445D01*
X350500Y87499D01*
X350512Y87536D01*
X350511Y87576D01*
X350519Y87630D01*
X350519Y90170D01*
X350508Y90235D01*
X350506Y90301D01*
X350488Y90344D01*
X350480Y90391D01*
X350446Y90448D01*
X350421Y90508D01*
X350390Y90543D01*
X350365Y90584D01*
X350314Y90626D01*
X350270Y90674D01*
X350228Y90696D01*
X350191Y90725D01*
X350129Y90746D01*
X350070Y90777D01*
X350016Y90785D01*
X349979Y90797D01*
X349939Y90796D01*
X349885Y90804D01*
X346075Y90804D01*
X346010Y90793D01*
X345944Y90791D01*
X345901Y90773D01*
X345854Y90765D01*
X345797Y90731D01*
X345737Y90706D01*
X345702Y90675D01*
X345661Y90650D01*
X345620Y90599D01*
X345571Y90555D01*
X345549Y90513D01*
X345520Y90476D01*
X345499Y90414D01*
X345468Y90355D01*
X345460Y90301D01*
X345448Y90264D01*
X345448Y90261D01*
X345449Y90224D01*
X345441Y90170D01*
X345441Y87630D01*
X345452Y87565D01*
X345454Y87499D01*
X345472Y87456D01*
X345480Y87409D01*
X345514Y87352D01*
X345539Y87292D01*
X345570Y87257D01*
X345595Y87216D01*
X345646Y87175D01*
X345690Y87126D01*
X345732Y87104D01*
X345769Y87075D01*
X345831Y87054D01*
X345890Y87023D01*
X345944Y87015D01*
X345981Y87003D01*
X346021Y87004D01*
X346075Y86996D01*
X349885Y86996D01*
X349950Y87007D01*
G37*
G36*
X65470Y87007D02*
X65470Y87007D01*
X65536Y87009D01*
X65579Y87027D01*
X65626Y87035D01*
X65683Y87069D01*
X65743Y87094D01*
X65778Y87125D01*
X65819Y87150D01*
X65861Y87201D01*
X65909Y87245D01*
X65931Y87287D01*
X65960Y87324D01*
X65981Y87386D01*
X66012Y87445D01*
X66020Y87499D01*
X66032Y87536D01*
X66031Y87576D01*
X66039Y87630D01*
X66039Y90170D01*
X66028Y90235D01*
X66026Y90301D01*
X66008Y90344D01*
X66000Y90391D01*
X65966Y90448D01*
X65941Y90508D01*
X65910Y90543D01*
X65885Y90584D01*
X65834Y90626D01*
X65790Y90674D01*
X65748Y90696D01*
X65711Y90725D01*
X65649Y90746D01*
X65590Y90777D01*
X65536Y90785D01*
X65499Y90797D01*
X65459Y90796D01*
X65405Y90804D01*
X61595Y90804D01*
X61530Y90793D01*
X61464Y90791D01*
X61421Y90773D01*
X61374Y90765D01*
X61317Y90731D01*
X61257Y90706D01*
X61222Y90675D01*
X61181Y90650D01*
X61140Y90599D01*
X61091Y90555D01*
X61069Y90513D01*
X61040Y90476D01*
X61019Y90414D01*
X60988Y90355D01*
X60980Y90301D01*
X60968Y90264D01*
X60968Y90261D01*
X60969Y90224D01*
X60961Y90170D01*
X60961Y87630D01*
X60972Y87565D01*
X60974Y87499D01*
X60992Y87456D01*
X61000Y87409D01*
X61034Y87352D01*
X61059Y87292D01*
X61090Y87257D01*
X61115Y87216D01*
X61166Y87175D01*
X61210Y87126D01*
X61252Y87104D01*
X61289Y87075D01*
X61351Y87054D01*
X61410Y87023D01*
X61464Y87015D01*
X61501Y87003D01*
X61541Y87004D01*
X61595Y86996D01*
X65405Y86996D01*
X65470Y87007D01*
G37*
D10*
X273050Y6350D03*
X6350Y565150D03*
D11*
X196850Y508000D03*
X82550Y508000D03*
D12*
X218450Y477500D03*
X60950Y477500D03*
D13*
X184150Y444500D03*
X171450Y419100D03*
X158750Y444500D03*
X146050Y419100D03*
X133350Y444500D03*
X120650Y419100D03*
X107950Y444500D03*
X95250Y419100D03*
X196850Y419100D03*
X82550Y444500D03*
X180600Y548600D03*
X98800Y548600D03*
X206000Y548600D03*
X73400Y548600D03*
D14*
X205359Y25400D03*
X74041Y25400D03*
D15*
X177800Y101600D03*
X152400Y101600D03*
X127000Y101600D03*
X101600Y101600D03*
D16*
X25400Y546100D03*
X254000Y546100D03*
X254000Y25400D03*
X25400Y25400D03*
D17*
X190500Y134493D03*
X190500Y144907D03*
D18*
X58293Y88900D03*
X68707Y88900D03*
D10*
X557530Y6350D03*
X290830Y565150D03*
D11*
X481330Y508000D03*
X367030Y508000D03*
D12*
X502930Y477500D03*
X345430Y477500D03*
D13*
X468630Y444500D03*
X455930Y419100D03*
X443230Y444500D03*
X430530Y419100D03*
X417830Y444500D03*
X405130Y419100D03*
X392430Y444500D03*
X379730Y419100D03*
X481330Y419100D03*
X367030Y444500D03*
X465080Y548600D03*
X383280Y548600D03*
X490480Y548600D03*
X357880Y548600D03*
D14*
X489839Y25400D03*
X358521Y25400D03*
D15*
X462280Y101600D03*
X436880Y101600D03*
X411480Y101600D03*
X386080Y101600D03*
D16*
X309880Y546100D03*
X538480Y546100D03*
X538480Y25400D03*
X309880Y25400D03*
D17*
X474980Y134493D03*
X474980Y144907D03*
D18*
X342773Y88900D03*
X353187Y88900D03*
D10*
X842010Y6350D03*
X575310Y565150D03*
D11*
X765810Y508000D03*
X651510Y508000D03*
D12*
X787410Y477500D03*
X629910Y477500D03*
D13*
X753110Y444500D03*
X740410Y419100D03*
X727710Y444500D03*
X715010Y419100D03*
X702310Y444500D03*
X689610Y419100D03*
X676910Y444500D03*
X664210Y419100D03*
X765810Y419100D03*
X651510Y444500D03*
X749560Y548600D03*
X667760Y548600D03*
X774960Y548600D03*
X642360Y548600D03*
D14*
X774319Y25400D03*
X643001Y25400D03*
D15*
X746760Y101600D03*
X721360Y101600D03*
X695960Y101600D03*
X670560Y101600D03*
D16*
X594360Y546100D03*
X822960Y546100D03*
X822960Y25400D03*
X594360Y25400D03*
D17*
X759460Y134493D03*
X759460Y144907D03*
D18*
X627253Y88900D03*
X637667Y88900D03*
D10*
X1126490Y6350D03*
X859790Y565150D03*
D11*
X1050290Y508000D03*
X935990Y508000D03*
D12*
X1071890Y477500D03*
X914390Y477500D03*
D13*
X1037590Y444500D03*
X1024890Y419100D03*
X1012190Y444500D03*
X999490Y419100D03*
X986790Y444500D03*
X974090Y419100D03*
X961390Y444500D03*
X948690Y419100D03*
X1050290Y419100D03*
X935990Y444500D03*
X1034040Y548600D03*
X952240Y548600D03*
X1059440Y548600D03*
X926840Y548600D03*
D14*
X1058799Y25400D03*
X927481Y25400D03*
D15*
X1031240Y101600D03*
X1005840Y101600D03*
X980440Y101600D03*
X955040Y101600D03*
D16*
X878840Y546100D03*
X1107440Y546100D03*
X1107440Y25400D03*
X878840Y25400D03*
D17*
X1043940Y134493D03*
X1043940Y144907D03*
D18*
X911733Y88900D03*
X922147Y88900D03*
D10*
X273050Y704850D03*
X6350Y1263650D03*
D11*
X196850Y1206500D03*
X82550Y1206500D03*
D12*
X218450Y1176000D03*
X60950Y1176000D03*
D13*
X184150Y1143000D03*
X171450Y1117600D03*
X158750Y1143000D03*
X146050Y1117600D03*
X133350Y1143000D03*
X120650Y1117600D03*
X107950Y1143000D03*
X95250Y1117600D03*
X196850Y1117600D03*
X82550Y1143000D03*
X180600Y1247100D03*
X98800Y1247100D03*
X206000Y1247100D03*
X73400Y1247100D03*
D14*
X205359Y723900D03*
X74041Y723900D03*
D15*
X177800Y800100D03*
X152400Y800100D03*
X127000Y800100D03*
X101600Y800100D03*
D16*
X25400Y1244600D03*
X254000Y1244600D03*
X254000Y723900D03*
X25400Y723900D03*
D17*
X190500Y832993D03*
X190500Y843407D03*
D18*
X58293Y787400D03*
X68707Y787400D03*
D10*
X557530Y704850D03*
X290830Y1263650D03*
D11*
X481330Y1206500D03*
X367030Y1206500D03*
D12*
X502930Y1176000D03*
X345430Y1176000D03*
D13*
X468630Y1143000D03*
X455930Y1117600D03*
X443230Y1143000D03*
X430530Y1117600D03*
X417830Y1143000D03*
X405130Y1117600D03*
X392430Y1143000D03*
X379730Y1117600D03*
X481330Y1117600D03*
X367030Y1143000D03*
X465080Y1247100D03*
X383280Y1247100D03*
X490480Y1247100D03*
X357880Y1247100D03*
D14*
X489839Y723900D03*
X358521Y723900D03*
D15*
X462280Y800100D03*
X436880Y800100D03*
X411480Y800100D03*
X386080Y800100D03*
D16*
X309880Y1244600D03*
X538480Y1244600D03*
X538480Y723900D03*
X309880Y723900D03*
D17*
X474980Y832993D03*
X474980Y843407D03*
D18*
X342773Y787400D03*
X353187Y787400D03*
D10*
X842010Y704850D03*
X575310Y1263650D03*
D11*
X765810Y1206500D03*
X651510Y1206500D03*
D12*
X787410Y1176000D03*
X629910Y1176000D03*
D13*
X753110Y1143000D03*
X740410Y1117600D03*
X727710Y1143000D03*
X715010Y1117600D03*
X702310Y1143000D03*
X689610Y1117600D03*
X676910Y1143000D03*
X664210Y1117600D03*
X765810Y1117600D03*
X651510Y1143000D03*
X749560Y1247100D03*
X667760Y1247100D03*
X774960Y1247100D03*
X642360Y1247100D03*
D14*
X774319Y723900D03*
X643001Y723900D03*
D15*
X746760Y800100D03*
X721360Y800100D03*
X695960Y800100D03*
X670560Y800100D03*
D16*
X594360Y1244600D03*
X822960Y1244600D03*
X822960Y723900D03*
X594360Y723900D03*
D17*
X759460Y832993D03*
X759460Y843407D03*
D18*
X627253Y787400D03*
X637667Y787400D03*
D10*
X1126490Y704850D03*
X859790Y1263650D03*
D11*
X1050290Y1206500D03*
X935990Y1206500D03*
D12*
X1071890Y1176000D03*
X914390Y1176000D03*
D13*
X1037590Y1143000D03*
X1024890Y1117600D03*
X1012190Y1143000D03*
X999490Y1117600D03*
X986790Y1143000D03*
X974090Y1117600D03*
X961390Y1143000D03*
X948690Y1117600D03*
X1050290Y1117600D03*
X935990Y1143000D03*
X1034040Y1247100D03*
X952240Y1247100D03*
X1059440Y1247100D03*
X926840Y1247100D03*
D14*
X1058799Y723900D03*
X927481Y723900D03*
D15*
X1031240Y800100D03*
X1005840Y800100D03*
X980440Y800100D03*
X955040Y800100D03*
D16*
X878840Y1244600D03*
X1107440Y1244600D03*
X1107440Y723900D03*
X878840Y723900D03*
D17*
X1043940Y832993D03*
X1043940Y843407D03*
D18*
X911733Y787400D03*
X922147Y787400D03*
D19*
X-26238Y1365250D03*
X1159078Y1365250D03*
D20*
X-35293Y63500D02*
X-35290Y63722D01*
X-35282Y63944D01*
X-35268Y64166D01*
X-35249Y64388D01*
X-35225Y64608D01*
X-35195Y64829D01*
X-35160Y65048D01*
X-35119Y65267D01*
X-35073Y65484D01*
X-35022Y65700D01*
X-34965Y65915D01*
X-34903Y66129D01*
X-34836Y66340D01*
X-34764Y66551D01*
X-34686Y66759D01*
X-34604Y66965D01*
X-34516Y67169D01*
X-34424Y67372D01*
X-34326Y67571D01*
X-34224Y67768D01*
X-34117Y67963D01*
X-34005Y68155D01*
X-33888Y68344D01*
X-33767Y68531D01*
X-33641Y68714D01*
X-33511Y68894D01*
X-33376Y69071D01*
X-33238Y69244D01*
X-33095Y69414D01*
X-32947Y69581D01*
X-32796Y69744D01*
X-32641Y69903D01*
X-32482Y70058D01*
X-32319Y70209D01*
X-32152Y70357D01*
X-31982Y70500D01*
X-31809Y70638D01*
X-31632Y70773D01*
X-31452Y70903D01*
X-31269Y71029D01*
X-31082Y71150D01*
X-30893Y71267D01*
X-30701Y71379D01*
X-30506Y71486D01*
X-30309Y71588D01*
X-30110Y71686D01*
X-29907Y71778D01*
X-29703Y71866D01*
X-29497Y71948D01*
X-29289Y72026D01*
X-29078Y72098D01*
X-28867Y72165D01*
X-28653Y72227D01*
X-28438Y72284D01*
X-28222Y72335D01*
X-28005Y72381D01*
X-27786Y72422D01*
X-27567Y72457D01*
X-27346Y72487D01*
X-27126Y72511D01*
X-26904Y72530D01*
X-26682Y72544D01*
X-26460Y72552D01*
X-26238Y72555D01*
X-26016Y72552D01*
X-25794Y72544D01*
X-25572Y72530D01*
X-25350Y72511D01*
X-25130Y72487D01*
X-24909Y72457D01*
X-24690Y72422D01*
X-24471Y72381D01*
X-24254Y72335D01*
X-24038Y72284D01*
X-23823Y72227D01*
X-23609Y72165D01*
X-23398Y72098D01*
X-23187Y72026D01*
X-22979Y71948D01*
X-22773Y71866D01*
X-22569Y71778D01*
X-22366Y71686D01*
X-22167Y71588D01*
X-21970Y71486D01*
X-21775Y71379D01*
X-21583Y71267D01*
X-21394Y71150D01*
X-21207Y71029D01*
X-21024Y70903D01*
X-20844Y70773D01*
X-20667Y70638D01*
X-20494Y70500D01*
X-20324Y70357D01*
X-20157Y70209D01*
X-19994Y70058D01*
X-19835Y69903D01*
X-19680Y69744D01*
X-19529Y69581D01*
X-19381Y69414D01*
X-19238Y69244D01*
X-19100Y69071D01*
X-18965Y68894D01*
X-18835Y68714D01*
X-18709Y68531D01*
X-18588Y68344D01*
X-18471Y68155D01*
X-18359Y67963D01*
X-18252Y67768D01*
X-18150Y67571D01*
X-18052Y67372D01*
X-17960Y67169D01*
X-17872Y66965D01*
X-17790Y66759D01*
X-17712Y66551D01*
X-17640Y66340D01*
X-17573Y66129D01*
X-17511Y65915D01*
X-17454Y65700D01*
X-17403Y65484D01*
X-17357Y65267D01*
X-17316Y65048D01*
X-17281Y64829D01*
X-17251Y64608D01*
X-17227Y64388D01*
X-17208Y64166D01*
X-17194Y63944D01*
X-17186Y63722D01*
X-17183Y63500D01*
X-17186Y63278D01*
X-17194Y63056D01*
X-17208Y62834D01*
X-17227Y62612D01*
X-17251Y62392D01*
X-17281Y62171D01*
X-17316Y61952D01*
X-17357Y61733D01*
X-17403Y61516D01*
X-17454Y61300D01*
X-17511Y61085D01*
X-17573Y60871D01*
X-17640Y60660D01*
X-17712Y60449D01*
X-17790Y60241D01*
X-17872Y60035D01*
X-17960Y59831D01*
X-18052Y59628D01*
X-18150Y59429D01*
X-18252Y59232D01*
X-18359Y59037D01*
X-18471Y58845D01*
X-18588Y58656D01*
X-18709Y58469D01*
X-18835Y58286D01*
X-18965Y58106D01*
X-19100Y57929D01*
X-19238Y57756D01*
X-19381Y57586D01*
X-19529Y57419D01*
X-19680Y57256D01*
X-19835Y57097D01*
X-19994Y56942D01*
X-20157Y56791D01*
X-20324Y56643D01*
X-20494Y56500D01*
X-20667Y56362D01*
X-20844Y56227D01*
X-21024Y56097D01*
X-21207Y55971D01*
X-21394Y55850D01*
X-21583Y55733D01*
X-21775Y55621D01*
X-21970Y55514D01*
X-22167Y55412D01*
X-22366Y55314D01*
X-22569Y55222D01*
X-22773Y55134D01*
X-22979Y55052D01*
X-23187Y54974D01*
X-23398Y54902D01*
X-23609Y54835D01*
X-23823Y54773D01*
X-24038Y54716D01*
X-24254Y54665D01*
X-24471Y54619D01*
X-24690Y54578D01*
X-24909Y54543D01*
X-25130Y54513D01*
X-25350Y54489D01*
X-25572Y54470D01*
X-25794Y54456D01*
X-26016Y54448D01*
X-26238Y54445D01*
X-26460Y54448D01*
X-26682Y54456D01*
X-26904Y54470D01*
X-27126Y54489D01*
X-27346Y54513D01*
X-27567Y54543D01*
X-27786Y54578D01*
X-28005Y54619D01*
X-28222Y54665D01*
X-28438Y54716D01*
X-28653Y54773D01*
X-28867Y54835D01*
X-29078Y54902D01*
X-29289Y54974D01*
X-29497Y55052D01*
X-29703Y55134D01*
X-29907Y55222D01*
X-30110Y55314D01*
X-30309Y55412D01*
X-30506Y55514D01*
X-30701Y55621D01*
X-30893Y55733D01*
X-31082Y55850D01*
X-31269Y55971D01*
X-31452Y56097D01*
X-31632Y56227D01*
X-31809Y56362D01*
X-31982Y56500D01*
X-32152Y56643D01*
X-32319Y56791D01*
X-32482Y56942D01*
X-32641Y57097D01*
X-32796Y57256D01*
X-32947Y57419D01*
X-33095Y57586D01*
X-33238Y57756D01*
X-33376Y57929D01*
X-33511Y58106D01*
X-33641Y58286D01*
X-33767Y58469D01*
X-33888Y58656D01*
X-34005Y58845D01*
X-34117Y59037D01*
X-34224Y59232D01*
X-34326Y59429D01*
X-34424Y59628D01*
X-34516Y59831D01*
X-34604Y60035D01*
X-34686Y60241D01*
X-34764Y60449D01*
X-34836Y60660D01*
X-34903Y60871D01*
X-34965Y61085D01*
X-35022Y61300D01*
X-35073Y61516D01*
X-35119Y61733D01*
X-35160Y61952D01*
X-35195Y62171D01*
X-35225Y62392D01*
X-35249Y62612D01*
X-35268Y62834D01*
X-35282Y63056D01*
X-35290Y63278D01*
X-35293Y63500D01*
D13*
X-26238Y63500D03*
M02*
