G04 EAGLE Gerber RS-274X export*
G75*
%MOMM*%
%FSLAX34Y34*%
%LPD*%
%INSoldermask Top*%
%IPPOS*%
%AMOC8*
5,1,8,0,0,1.08239X$1,22.5*%
G01*
%ADD10R,1.303200X1.203200*%
%ADD11C,0.838200*%
%ADD12C,3.453200*%
%ADD13C,2.753200*%
%ADD14C,1.703200*%
%ADD15R,1.203200X1.303200*%
%ADD16R,0.753200X1.403200*%
%ADD17R,2.003200X1.803200*%
%ADD18C,3.530600*%
%ADD19R,1.103200X3.203200*%
%ADD20C,2.082800*%
%ADD21C,3.505200*%
%ADD22R,1.453200X4.203200*%
%ADD23R,1.033200X0.833200*%
%ADD24R,1.603200X3.203200*%
%ADD25R,1.403200X1.003200*%
%ADD26R,2.003200X1.003200*%
%ADD27R,2.003200X2.903200*%
%ADD28C,0.505344*%
%ADD29C,1.203200*%
%ADD30C,1.270000*%


D10*
X220100Y190500D03*
X237100Y190500D03*
D11*
X273050Y6350D03*
X6350Y565150D03*
D10*
X220100Y165100D03*
X237100Y165100D03*
D12*
X196850Y508000D03*
X82550Y508000D03*
D13*
X218450Y477500D03*
X60950Y477500D03*
D14*
X184150Y444500D03*
X171450Y419100D03*
X158750Y444500D03*
X146050Y419100D03*
X133350Y444500D03*
X120650Y419100D03*
X107950Y444500D03*
X95250Y419100D03*
X196850Y419100D03*
X82550Y444500D03*
X180600Y548600D03*
X98800Y548600D03*
X206000Y548600D03*
X73400Y548600D03*
D15*
X254000Y135500D03*
X254000Y118500D03*
D16*
X238100Y140001D03*
X228600Y140001D03*
X219100Y140001D03*
X219100Y113999D03*
X238100Y113999D03*
D17*
X19050Y306100D03*
X19050Y278100D03*
D10*
X237100Y88900D03*
X220100Y88900D03*
D18*
X205359Y25400D03*
X74041Y25400D03*
D19*
X129700Y67520D03*
X104700Y67520D03*
X149700Y67520D03*
X174700Y67520D03*
D20*
X177800Y101600D03*
X152400Y101600D03*
X127000Y101600D03*
X101600Y101600D03*
D21*
X25400Y546100D03*
X254000Y546100D03*
X254000Y25400D03*
X25400Y25400D03*
D22*
X71800Y221100D03*
X46400Y221100D03*
X207600Y221100D03*
X233000Y221100D03*
X233000Y363100D03*
X207600Y363100D03*
X71800Y363100D03*
X46400Y363100D03*
D23*
X203200Y189300D03*
X203200Y166300D03*
D24*
X50800Y176400D03*
X50800Y128400D03*
D25*
X127000Y186800D03*
X127000Y168800D03*
X101600Y186800D03*
X101600Y168800D03*
D26*
X152400Y185800D03*
X152400Y169800D03*
D25*
X177800Y168800D03*
X177800Y186800D03*
D27*
X117700Y139700D03*
X161700Y139700D03*
D10*
X29600Y69850D03*
X46600Y69850D03*
D28*
X43380Y85410D02*
X43380Y92390D01*
X50360Y92390D01*
X50360Y85410D01*
X43380Y85410D01*
X43380Y90210D02*
X50360Y90210D01*
X25840Y92390D02*
X25840Y85410D01*
X25840Y92390D02*
X32820Y92390D01*
X32820Y85410D01*
X25840Y85410D01*
X25840Y90210D02*
X32820Y90210D01*
D10*
X504580Y190500D03*
X521580Y190500D03*
D11*
X557530Y6350D03*
X290830Y565150D03*
D10*
X504580Y165100D03*
X521580Y165100D03*
D12*
X481330Y508000D03*
X367030Y508000D03*
D13*
X502930Y477500D03*
X345430Y477500D03*
D14*
X468630Y444500D03*
X455930Y419100D03*
X443230Y444500D03*
X430530Y419100D03*
X417830Y444500D03*
X405130Y419100D03*
X392430Y444500D03*
X379730Y419100D03*
X481330Y419100D03*
X367030Y444500D03*
X465080Y548600D03*
X383280Y548600D03*
X490480Y548600D03*
X357880Y548600D03*
D15*
X538480Y135500D03*
X538480Y118500D03*
D16*
X522580Y140001D03*
X513080Y140001D03*
X503580Y140001D03*
X503580Y113999D03*
X522580Y113999D03*
D17*
X303530Y306100D03*
X303530Y278100D03*
D10*
X521580Y88900D03*
X504580Y88900D03*
D18*
X489839Y25400D03*
X358521Y25400D03*
D19*
X414180Y67520D03*
X389180Y67520D03*
X434180Y67520D03*
X459180Y67520D03*
D20*
X462280Y101600D03*
X436880Y101600D03*
X411480Y101600D03*
X386080Y101600D03*
D21*
X309880Y546100D03*
X538480Y546100D03*
X538480Y25400D03*
X309880Y25400D03*
D22*
X356280Y221100D03*
X330880Y221100D03*
X492080Y221100D03*
X517480Y221100D03*
X517480Y363100D03*
X492080Y363100D03*
X356280Y363100D03*
X330880Y363100D03*
D23*
X487680Y189300D03*
X487680Y166300D03*
D24*
X335280Y176400D03*
X335280Y128400D03*
D25*
X411480Y186800D03*
X411480Y168800D03*
X386080Y186800D03*
X386080Y168800D03*
D26*
X436880Y185800D03*
X436880Y169800D03*
D25*
X462280Y168800D03*
X462280Y186800D03*
D27*
X402180Y139700D03*
X446180Y139700D03*
D10*
X314080Y69850D03*
X331080Y69850D03*
D28*
X327860Y85410D02*
X327860Y92390D01*
X334840Y92390D01*
X334840Y85410D01*
X327860Y85410D01*
X327860Y90210D02*
X334840Y90210D01*
X310320Y92390D02*
X310320Y85410D01*
X310320Y92390D02*
X317300Y92390D01*
X317300Y85410D01*
X310320Y85410D01*
X310320Y90210D02*
X317300Y90210D01*
D10*
X789060Y190500D03*
X806060Y190500D03*
D11*
X842010Y6350D03*
X575310Y565150D03*
D10*
X789060Y165100D03*
X806060Y165100D03*
D12*
X765810Y508000D03*
X651510Y508000D03*
D13*
X787410Y477500D03*
X629910Y477500D03*
D14*
X753110Y444500D03*
X740410Y419100D03*
X727710Y444500D03*
X715010Y419100D03*
X702310Y444500D03*
X689610Y419100D03*
X676910Y444500D03*
X664210Y419100D03*
X765810Y419100D03*
X651510Y444500D03*
X749560Y548600D03*
X667760Y548600D03*
X774960Y548600D03*
X642360Y548600D03*
D15*
X822960Y135500D03*
X822960Y118500D03*
D16*
X807060Y140001D03*
X797560Y140001D03*
X788060Y140001D03*
X788060Y113999D03*
X807060Y113999D03*
D17*
X588010Y306100D03*
X588010Y278100D03*
D10*
X806060Y88900D03*
X789060Y88900D03*
D18*
X774319Y25400D03*
X643001Y25400D03*
D19*
X698660Y67520D03*
X673660Y67520D03*
X718660Y67520D03*
X743660Y67520D03*
D20*
X746760Y101600D03*
X721360Y101600D03*
X695960Y101600D03*
X670560Y101600D03*
D21*
X594360Y546100D03*
X822960Y546100D03*
X822960Y25400D03*
X594360Y25400D03*
D22*
X640760Y221100D03*
X615360Y221100D03*
X776560Y221100D03*
X801960Y221100D03*
X801960Y363100D03*
X776560Y363100D03*
X640760Y363100D03*
X615360Y363100D03*
D23*
X772160Y189300D03*
X772160Y166300D03*
D24*
X619760Y176400D03*
X619760Y128400D03*
D25*
X695960Y186800D03*
X695960Y168800D03*
X670560Y186800D03*
X670560Y168800D03*
D26*
X721360Y185800D03*
X721360Y169800D03*
D25*
X746760Y168800D03*
X746760Y186800D03*
D27*
X686660Y139700D03*
X730660Y139700D03*
D10*
X598560Y69850D03*
X615560Y69850D03*
D28*
X612340Y85410D02*
X612340Y92390D01*
X619320Y92390D01*
X619320Y85410D01*
X612340Y85410D01*
X612340Y90210D02*
X619320Y90210D01*
X594800Y92390D02*
X594800Y85410D01*
X594800Y92390D02*
X601780Y92390D01*
X601780Y85410D01*
X594800Y85410D01*
X594800Y90210D02*
X601780Y90210D01*
D10*
X1073540Y190500D03*
X1090540Y190500D03*
D11*
X1126490Y6350D03*
X859790Y565150D03*
D10*
X1073540Y165100D03*
X1090540Y165100D03*
D12*
X1050290Y508000D03*
X935990Y508000D03*
D13*
X1071890Y477500D03*
X914390Y477500D03*
D14*
X1037590Y444500D03*
X1024890Y419100D03*
X1012190Y444500D03*
X999490Y419100D03*
X986790Y444500D03*
X974090Y419100D03*
X961390Y444500D03*
X948690Y419100D03*
X1050290Y419100D03*
X935990Y444500D03*
X1034040Y548600D03*
X952240Y548600D03*
X1059440Y548600D03*
X926840Y548600D03*
D15*
X1107440Y135500D03*
X1107440Y118500D03*
D16*
X1091540Y140001D03*
X1082040Y140001D03*
X1072540Y140001D03*
X1072540Y113999D03*
X1091540Y113999D03*
D17*
X872490Y306100D03*
X872490Y278100D03*
D10*
X1090540Y88900D03*
X1073540Y88900D03*
D18*
X1058799Y25400D03*
X927481Y25400D03*
D19*
X983140Y67520D03*
X958140Y67520D03*
X1003140Y67520D03*
X1028140Y67520D03*
D20*
X1031240Y101600D03*
X1005840Y101600D03*
X980440Y101600D03*
X955040Y101600D03*
D21*
X878840Y546100D03*
X1107440Y546100D03*
X1107440Y25400D03*
X878840Y25400D03*
D22*
X925240Y221100D03*
X899840Y221100D03*
X1061040Y221100D03*
X1086440Y221100D03*
X1086440Y363100D03*
X1061040Y363100D03*
X925240Y363100D03*
X899840Y363100D03*
D23*
X1056640Y189300D03*
X1056640Y166300D03*
D24*
X904240Y176400D03*
X904240Y128400D03*
D25*
X980440Y186800D03*
X980440Y168800D03*
X955040Y186800D03*
X955040Y168800D03*
D26*
X1005840Y185800D03*
X1005840Y169800D03*
D25*
X1031240Y168800D03*
X1031240Y186800D03*
D27*
X971140Y139700D03*
X1015140Y139700D03*
D10*
X883040Y69850D03*
X900040Y69850D03*
D28*
X896820Y85410D02*
X896820Y92390D01*
X903800Y92390D01*
X903800Y85410D01*
X896820Y85410D01*
X896820Y90210D02*
X903800Y90210D01*
X879280Y92390D02*
X879280Y85410D01*
X879280Y92390D02*
X886260Y92390D01*
X886260Y85410D01*
X879280Y85410D01*
X879280Y90210D02*
X886260Y90210D01*
D10*
X220100Y889000D03*
X237100Y889000D03*
D11*
X273050Y704850D03*
X6350Y1263650D03*
D10*
X220100Y863600D03*
X237100Y863600D03*
D12*
X196850Y1206500D03*
X82550Y1206500D03*
D13*
X218450Y1176000D03*
X60950Y1176000D03*
D14*
X184150Y1143000D03*
X171450Y1117600D03*
X158750Y1143000D03*
X146050Y1117600D03*
X133350Y1143000D03*
X120650Y1117600D03*
X107950Y1143000D03*
X95250Y1117600D03*
X196850Y1117600D03*
X82550Y1143000D03*
X180600Y1247100D03*
X98800Y1247100D03*
X206000Y1247100D03*
X73400Y1247100D03*
D15*
X254000Y834000D03*
X254000Y817000D03*
D16*
X238100Y838501D03*
X228600Y838501D03*
X219100Y838501D03*
X219100Y812499D03*
X238100Y812499D03*
D17*
X19050Y1004600D03*
X19050Y976600D03*
D10*
X237100Y787400D03*
X220100Y787400D03*
D18*
X205359Y723900D03*
X74041Y723900D03*
D19*
X129700Y766020D03*
X104700Y766020D03*
X149700Y766020D03*
X174700Y766020D03*
D20*
X177800Y800100D03*
X152400Y800100D03*
X127000Y800100D03*
X101600Y800100D03*
D21*
X25400Y1244600D03*
X254000Y1244600D03*
X254000Y723900D03*
X25400Y723900D03*
D22*
X71800Y919600D03*
X46400Y919600D03*
X207600Y919600D03*
X233000Y919600D03*
X233000Y1061600D03*
X207600Y1061600D03*
X71800Y1061600D03*
X46400Y1061600D03*
D23*
X203200Y887800D03*
X203200Y864800D03*
D24*
X50800Y874900D03*
X50800Y826900D03*
D25*
X127000Y885300D03*
X127000Y867300D03*
X101600Y885300D03*
X101600Y867300D03*
D26*
X152400Y884300D03*
X152400Y868300D03*
D25*
X177800Y867300D03*
X177800Y885300D03*
D27*
X117700Y838200D03*
X161700Y838200D03*
D10*
X29600Y768350D03*
X46600Y768350D03*
D28*
X43380Y783910D02*
X43380Y790890D01*
X50360Y790890D01*
X50360Y783910D01*
X43380Y783910D01*
X43380Y788710D02*
X50360Y788710D01*
X25840Y790890D02*
X25840Y783910D01*
X25840Y790890D02*
X32820Y790890D01*
X32820Y783910D01*
X25840Y783910D01*
X25840Y788710D02*
X32820Y788710D01*
D10*
X504580Y889000D03*
X521580Y889000D03*
D11*
X557530Y704850D03*
X290830Y1263650D03*
D10*
X504580Y863600D03*
X521580Y863600D03*
D12*
X481330Y1206500D03*
X367030Y1206500D03*
D13*
X502930Y1176000D03*
X345430Y1176000D03*
D14*
X468630Y1143000D03*
X455930Y1117600D03*
X443230Y1143000D03*
X430530Y1117600D03*
X417830Y1143000D03*
X405130Y1117600D03*
X392430Y1143000D03*
X379730Y1117600D03*
X481330Y1117600D03*
X367030Y1143000D03*
X465080Y1247100D03*
X383280Y1247100D03*
X490480Y1247100D03*
X357880Y1247100D03*
D15*
X538480Y834000D03*
X538480Y817000D03*
D16*
X522580Y838501D03*
X513080Y838501D03*
X503580Y838501D03*
X503580Y812499D03*
X522580Y812499D03*
D17*
X303530Y1004600D03*
X303530Y976600D03*
D10*
X521580Y787400D03*
X504580Y787400D03*
D18*
X489839Y723900D03*
X358521Y723900D03*
D19*
X414180Y766020D03*
X389180Y766020D03*
X434180Y766020D03*
X459180Y766020D03*
D20*
X462280Y800100D03*
X436880Y800100D03*
X411480Y800100D03*
X386080Y800100D03*
D21*
X309880Y1244600D03*
X538480Y1244600D03*
X538480Y723900D03*
X309880Y723900D03*
D22*
X356280Y919600D03*
X330880Y919600D03*
X492080Y919600D03*
X517480Y919600D03*
X517480Y1061600D03*
X492080Y1061600D03*
X356280Y1061600D03*
X330880Y1061600D03*
D23*
X487680Y887800D03*
X487680Y864800D03*
D24*
X335280Y874900D03*
X335280Y826900D03*
D25*
X411480Y885300D03*
X411480Y867300D03*
X386080Y885300D03*
X386080Y867300D03*
D26*
X436880Y884300D03*
X436880Y868300D03*
D25*
X462280Y867300D03*
X462280Y885300D03*
D27*
X402180Y838200D03*
X446180Y838200D03*
D10*
X314080Y768350D03*
X331080Y768350D03*
D28*
X327860Y783910D02*
X327860Y790890D01*
X334840Y790890D01*
X334840Y783910D01*
X327860Y783910D01*
X327860Y788710D02*
X334840Y788710D01*
X310320Y790890D02*
X310320Y783910D01*
X310320Y790890D02*
X317300Y790890D01*
X317300Y783910D01*
X310320Y783910D01*
X310320Y788710D02*
X317300Y788710D01*
D10*
X789060Y889000D03*
X806060Y889000D03*
D11*
X842010Y704850D03*
X575310Y1263650D03*
D10*
X789060Y863600D03*
X806060Y863600D03*
D12*
X765810Y1206500D03*
X651510Y1206500D03*
D13*
X787410Y1176000D03*
X629910Y1176000D03*
D14*
X753110Y1143000D03*
X740410Y1117600D03*
X727710Y1143000D03*
X715010Y1117600D03*
X702310Y1143000D03*
X689610Y1117600D03*
X676910Y1143000D03*
X664210Y1117600D03*
X765810Y1117600D03*
X651510Y1143000D03*
X749560Y1247100D03*
X667760Y1247100D03*
X774960Y1247100D03*
X642360Y1247100D03*
D15*
X822960Y834000D03*
X822960Y817000D03*
D16*
X807060Y838501D03*
X797560Y838501D03*
X788060Y838501D03*
X788060Y812499D03*
X807060Y812499D03*
D17*
X588010Y1004600D03*
X588010Y976600D03*
D10*
X806060Y787400D03*
X789060Y787400D03*
D18*
X774319Y723900D03*
X643001Y723900D03*
D19*
X698660Y766020D03*
X673660Y766020D03*
X718660Y766020D03*
X743660Y766020D03*
D20*
X746760Y800100D03*
X721360Y800100D03*
X695960Y800100D03*
X670560Y800100D03*
D21*
X594360Y1244600D03*
X822960Y1244600D03*
X822960Y723900D03*
X594360Y723900D03*
D22*
X640760Y919600D03*
X615360Y919600D03*
X776560Y919600D03*
X801960Y919600D03*
X801960Y1061600D03*
X776560Y1061600D03*
X640760Y1061600D03*
X615360Y1061600D03*
D23*
X772160Y887800D03*
X772160Y864800D03*
D24*
X619760Y874900D03*
X619760Y826900D03*
D25*
X695960Y885300D03*
X695960Y867300D03*
X670560Y885300D03*
X670560Y867300D03*
D26*
X721360Y884300D03*
X721360Y868300D03*
D25*
X746760Y867300D03*
X746760Y885300D03*
D27*
X686660Y838200D03*
X730660Y838200D03*
D10*
X598560Y768350D03*
X615560Y768350D03*
D28*
X612340Y783910D02*
X612340Y790890D01*
X619320Y790890D01*
X619320Y783910D01*
X612340Y783910D01*
X612340Y788710D02*
X619320Y788710D01*
X594800Y790890D02*
X594800Y783910D01*
X594800Y790890D02*
X601780Y790890D01*
X601780Y783910D01*
X594800Y783910D01*
X594800Y788710D02*
X601780Y788710D01*
D10*
X1073540Y889000D03*
X1090540Y889000D03*
D11*
X1126490Y704850D03*
X859790Y1263650D03*
D10*
X1073540Y863600D03*
X1090540Y863600D03*
D12*
X1050290Y1206500D03*
X935990Y1206500D03*
D13*
X1071890Y1176000D03*
X914390Y1176000D03*
D14*
X1037590Y1143000D03*
X1024890Y1117600D03*
X1012190Y1143000D03*
X999490Y1117600D03*
X986790Y1143000D03*
X974090Y1117600D03*
X961390Y1143000D03*
X948690Y1117600D03*
X1050290Y1117600D03*
X935990Y1143000D03*
X1034040Y1247100D03*
X952240Y1247100D03*
X1059440Y1247100D03*
X926840Y1247100D03*
D15*
X1107440Y834000D03*
X1107440Y817000D03*
D16*
X1091540Y838501D03*
X1082040Y838501D03*
X1072540Y838501D03*
X1072540Y812499D03*
X1091540Y812499D03*
D17*
X872490Y1004600D03*
X872490Y976600D03*
D10*
X1090540Y787400D03*
X1073540Y787400D03*
D18*
X1058799Y723900D03*
X927481Y723900D03*
D19*
X983140Y766020D03*
X958140Y766020D03*
X1003140Y766020D03*
X1028140Y766020D03*
D20*
X1031240Y800100D03*
X1005840Y800100D03*
X980440Y800100D03*
X955040Y800100D03*
D21*
X878840Y1244600D03*
X1107440Y1244600D03*
X1107440Y723900D03*
X878840Y723900D03*
D22*
X925240Y919600D03*
X899840Y919600D03*
X1061040Y919600D03*
X1086440Y919600D03*
X1086440Y1061600D03*
X1061040Y1061600D03*
X925240Y1061600D03*
X899840Y1061600D03*
D23*
X1056640Y887800D03*
X1056640Y864800D03*
D24*
X904240Y874900D03*
X904240Y826900D03*
D25*
X980440Y885300D03*
X980440Y867300D03*
X955040Y885300D03*
X955040Y867300D03*
D26*
X1005840Y884300D03*
X1005840Y868300D03*
D25*
X1031240Y867300D03*
X1031240Y885300D03*
D27*
X971140Y838200D03*
X1015140Y838200D03*
D10*
X883040Y768350D03*
X900040Y768350D03*
D28*
X896820Y783910D02*
X896820Y790890D01*
X903800Y790890D01*
X903800Y783910D01*
X896820Y783910D01*
X896820Y788710D02*
X903800Y788710D01*
X879280Y790890D02*
X879280Y783910D01*
X879280Y790890D02*
X886260Y790890D01*
X886260Y783910D01*
X879280Y783910D01*
X879280Y788710D02*
X886260Y788710D01*
D29*
X-26238Y1365250D03*
X1159078Y1365250D03*
D30*
X-35293Y63500D02*
X-35290Y63722D01*
X-35282Y63944D01*
X-35268Y64166D01*
X-35249Y64388D01*
X-35225Y64608D01*
X-35195Y64829D01*
X-35160Y65048D01*
X-35119Y65267D01*
X-35073Y65484D01*
X-35022Y65700D01*
X-34965Y65915D01*
X-34903Y66129D01*
X-34836Y66340D01*
X-34764Y66551D01*
X-34686Y66759D01*
X-34604Y66965D01*
X-34516Y67169D01*
X-34424Y67372D01*
X-34326Y67571D01*
X-34224Y67768D01*
X-34117Y67963D01*
X-34005Y68155D01*
X-33888Y68344D01*
X-33767Y68531D01*
X-33641Y68714D01*
X-33511Y68894D01*
X-33376Y69071D01*
X-33238Y69244D01*
X-33095Y69414D01*
X-32947Y69581D01*
X-32796Y69744D01*
X-32641Y69903D01*
X-32482Y70058D01*
X-32319Y70209D01*
X-32152Y70357D01*
X-31982Y70500D01*
X-31809Y70638D01*
X-31632Y70773D01*
X-31452Y70903D01*
X-31269Y71029D01*
X-31082Y71150D01*
X-30893Y71267D01*
X-30701Y71379D01*
X-30506Y71486D01*
X-30309Y71588D01*
X-30110Y71686D01*
X-29907Y71778D01*
X-29703Y71866D01*
X-29497Y71948D01*
X-29289Y72026D01*
X-29078Y72098D01*
X-28867Y72165D01*
X-28653Y72227D01*
X-28438Y72284D01*
X-28222Y72335D01*
X-28005Y72381D01*
X-27786Y72422D01*
X-27567Y72457D01*
X-27346Y72487D01*
X-27126Y72511D01*
X-26904Y72530D01*
X-26682Y72544D01*
X-26460Y72552D01*
X-26238Y72555D01*
X-26016Y72552D01*
X-25794Y72544D01*
X-25572Y72530D01*
X-25350Y72511D01*
X-25130Y72487D01*
X-24909Y72457D01*
X-24690Y72422D01*
X-24471Y72381D01*
X-24254Y72335D01*
X-24038Y72284D01*
X-23823Y72227D01*
X-23609Y72165D01*
X-23398Y72098D01*
X-23187Y72026D01*
X-22979Y71948D01*
X-22773Y71866D01*
X-22569Y71778D01*
X-22366Y71686D01*
X-22167Y71588D01*
X-21970Y71486D01*
X-21775Y71379D01*
X-21583Y71267D01*
X-21394Y71150D01*
X-21207Y71029D01*
X-21024Y70903D01*
X-20844Y70773D01*
X-20667Y70638D01*
X-20494Y70500D01*
X-20324Y70357D01*
X-20157Y70209D01*
X-19994Y70058D01*
X-19835Y69903D01*
X-19680Y69744D01*
X-19529Y69581D01*
X-19381Y69414D01*
X-19238Y69244D01*
X-19100Y69071D01*
X-18965Y68894D01*
X-18835Y68714D01*
X-18709Y68531D01*
X-18588Y68344D01*
X-18471Y68155D01*
X-18359Y67963D01*
X-18252Y67768D01*
X-18150Y67571D01*
X-18052Y67372D01*
X-17960Y67169D01*
X-17872Y66965D01*
X-17790Y66759D01*
X-17712Y66551D01*
X-17640Y66340D01*
X-17573Y66129D01*
X-17511Y65915D01*
X-17454Y65700D01*
X-17403Y65484D01*
X-17357Y65267D01*
X-17316Y65048D01*
X-17281Y64829D01*
X-17251Y64608D01*
X-17227Y64388D01*
X-17208Y64166D01*
X-17194Y63944D01*
X-17186Y63722D01*
X-17183Y63500D01*
X-17186Y63278D01*
X-17194Y63056D01*
X-17208Y62834D01*
X-17227Y62612D01*
X-17251Y62392D01*
X-17281Y62171D01*
X-17316Y61952D01*
X-17357Y61733D01*
X-17403Y61516D01*
X-17454Y61300D01*
X-17511Y61085D01*
X-17573Y60871D01*
X-17640Y60660D01*
X-17712Y60449D01*
X-17790Y60241D01*
X-17872Y60035D01*
X-17960Y59831D01*
X-18052Y59628D01*
X-18150Y59429D01*
X-18252Y59232D01*
X-18359Y59037D01*
X-18471Y58845D01*
X-18588Y58656D01*
X-18709Y58469D01*
X-18835Y58286D01*
X-18965Y58106D01*
X-19100Y57929D01*
X-19238Y57756D01*
X-19381Y57586D01*
X-19529Y57419D01*
X-19680Y57256D01*
X-19835Y57097D01*
X-19994Y56942D01*
X-20157Y56791D01*
X-20324Y56643D01*
X-20494Y56500D01*
X-20667Y56362D01*
X-20844Y56227D01*
X-21024Y56097D01*
X-21207Y55971D01*
X-21394Y55850D01*
X-21583Y55733D01*
X-21775Y55621D01*
X-21970Y55514D01*
X-22167Y55412D01*
X-22366Y55314D01*
X-22569Y55222D01*
X-22773Y55134D01*
X-22979Y55052D01*
X-23187Y54974D01*
X-23398Y54902D01*
X-23609Y54835D01*
X-23823Y54773D01*
X-24038Y54716D01*
X-24254Y54665D01*
X-24471Y54619D01*
X-24690Y54578D01*
X-24909Y54543D01*
X-25130Y54513D01*
X-25350Y54489D01*
X-25572Y54470D01*
X-25794Y54456D01*
X-26016Y54448D01*
X-26238Y54445D01*
X-26460Y54448D01*
X-26682Y54456D01*
X-26904Y54470D01*
X-27126Y54489D01*
X-27346Y54513D01*
X-27567Y54543D01*
X-27786Y54578D01*
X-28005Y54619D01*
X-28222Y54665D01*
X-28438Y54716D01*
X-28653Y54773D01*
X-28867Y54835D01*
X-29078Y54902D01*
X-29289Y54974D01*
X-29497Y55052D01*
X-29703Y55134D01*
X-29907Y55222D01*
X-30110Y55314D01*
X-30309Y55412D01*
X-30506Y55514D01*
X-30701Y55621D01*
X-30893Y55733D01*
X-31082Y55850D01*
X-31269Y55971D01*
X-31452Y56097D01*
X-31632Y56227D01*
X-31809Y56362D01*
X-31982Y56500D01*
X-32152Y56643D01*
X-32319Y56791D01*
X-32482Y56942D01*
X-32641Y57097D01*
X-32796Y57256D01*
X-32947Y57419D01*
X-33095Y57586D01*
X-33238Y57756D01*
X-33376Y57929D01*
X-33511Y58106D01*
X-33641Y58286D01*
X-33767Y58469D01*
X-33888Y58656D01*
X-34005Y58845D01*
X-34117Y59037D01*
X-34224Y59232D01*
X-34326Y59429D01*
X-34424Y59628D01*
X-34516Y59831D01*
X-34604Y60035D01*
X-34686Y60241D01*
X-34764Y60449D01*
X-34836Y60660D01*
X-34903Y60871D01*
X-34965Y61085D01*
X-35022Y61300D01*
X-35073Y61516D01*
X-35119Y61733D01*
X-35160Y61952D01*
X-35195Y62171D01*
X-35225Y62392D01*
X-35249Y62612D01*
X-35268Y62834D01*
X-35282Y63056D01*
X-35290Y63278D01*
X-35293Y63500D01*
D14*
X-26238Y63500D03*
M02*
