M48
;GenerationSoftware,Autodesk,EAGLE,9.6.2*%
;CreationDate,2021-11-16T23:26:30Z*%
FMAT,2
ICI,OFF
METRIC,TZ,000.000
T8C0.305
T7C0.381
T6C0.900
T5C1.016
T4C1.700
T3C2.311
T2C3.250
T1C3.302
%
G90
M71
T1
X87884Y54610
X59436Y124460
X82296Y124460
X2540Y124460
X25400Y124460
X25400Y72390
X2540Y72390
X82296Y72390
X59436Y72390
X30988Y124460
X2540Y54610
X25400Y54610
X25400Y2540
X2540Y2540
X87884Y72390
X53848Y124460
X30988Y54610
X53848Y54610
X53848Y2540
X30988Y2540
X53848Y72390
X110744Y124460
X59436Y54610
X82296Y54610
X82296Y2540
X59436Y2540
X30988Y72390
X110744Y72390
X87884Y124460
X110744Y54610
X110744Y2540
X87884Y2540
T2
X8255Y120650
X48133Y120650
X36703Y120650
X48133Y50800
X76581Y120650
X65151Y120650
X105029Y120650
X19685Y50800
X8255Y50800
X36703Y50800
X76581Y50800
X65151Y50800
X105029Y50800
X93599Y50800
X93599Y120650
X19685Y120650
T3
X105880Y72390
X20536Y72390
X7404Y72390
X48984Y2540
X35852Y72390
X7404Y2540
X20536Y2540
X35852Y2540
X77432Y2540
X64300Y2540
X105880Y2540
X64300Y72390
X77432Y72390
X48984Y72390
X92748Y2540
X92748Y72390
T4
X50293Y47750
X50293Y117600
X6095Y117600
X21845Y117600
X34543Y47750
X21845Y47750
X6095Y47750
X91439Y47750
X107189Y47750
X34543Y117600
X62991Y47750
X78741Y117600
X91439Y117600
X107189Y117600
X78741Y47750
X62991Y117600
T5
X10160Y10160
X12700Y10160
X15240Y10160
X17780Y10160
X95504Y80010
X98044Y80010
X100584Y80010
X103124Y80010
X67056Y80010
X46228Y80010
X95504Y10160
X98044Y10160
X100584Y10160
X103124Y10160
X38608Y80010
X74676Y80010
X15240Y80010
X17780Y80010
X67056Y10160
X69596Y10160
X72136Y10160
X74676Y10160
X72136Y80010
X43688Y80010
X41148Y80010
X10160Y80010
X38608Y10160
X41148Y10160
X43688Y10160
X46228Y10160
X69596Y80010
X12700Y80010
T6
X105944Y54860
X92684Y54860
X18415Y114300
X17145Y111760
X15875Y114300
X14605Y111760
X13335Y114300
X12065Y111760
X10795Y114300
X9525Y111760
X19685Y111760
X8255Y114300
X18060Y124710
X9880Y124710
X20600Y124710
X7340Y124710
X46863Y114300
X45593Y111760
X44323Y114300
X43053Y111760
X41783Y114300
X40513Y111760
X39243Y114300
X37973Y111760
X48133Y111760
X36703Y114300
X46508Y124710
X38328Y124710
X49048Y124710
X35788Y124710
X75311Y114300
X74041Y111760
X72771Y114300
X71501Y111760
X70231Y114300
X68961Y111760
X67691Y114300
X66421Y111760
X76581Y111760
X65151Y114300
X74956Y124710
X66776Y124710
X77496Y124710
X64236Y124710
X103759Y114300
X102489Y111760
X101219Y114300
X99949Y111760
X98679Y114300
X97409Y111760
X96139Y114300
X94869Y111760
X105029Y111760
X93599Y114300
X103404Y124710
X95224Y124710
X105944Y124710
X92684Y124710
X18415Y44450
X17145Y41910
X15875Y44450
X14605Y41910
X13335Y44450
X12065Y41910
X10795Y44450
X9525Y41910
X19685Y41910
X8255Y44450
X18060Y54860
X9880Y54860
X20600Y54860
X7340Y54860
X46863Y44450
X45593Y41910
X44323Y44450
X43053Y41910
X41783Y44450
X40513Y41910
X39243Y44450
X37973Y41910
X48133Y41910
X36703Y44450
X46508Y54860
X38328Y54860
X49048Y54860
X35788Y54860
X75311Y44450
X74041Y41910
X72771Y44450
X71501Y41910
X70231Y44450
X68961Y41910
X67691Y44450
X66421Y41910
X76581Y41910
X65151Y44450
X74956Y54860
X66776Y54860
X77496Y54860
X64236Y54860
X103759Y44450
X102489Y41910
X101219Y44450
X99949Y41910
X98679Y44450
X97409Y41910
X96139Y44450
X94869Y41910
X105029Y41910
X93599Y44450
X103404Y54860
X95224Y54860
T7
X22860Y12700
X5080Y15240
X6350Y6350
X10160Y15748
X10795Y13462
X19304Y18034
X25400Y16510
X25400Y19050
X20320Y8890
X17399Y4191
X20701Y25019
X23749Y10033
X20320Y15240
X20574Y13462
X6350Y76200
X51308Y12700
X33528Y15240
X34798Y6350
X38608Y15748
X39243Y13462
X47752Y18034
X53848Y16510
X53848Y19050
X48768Y8890
X45847Y4191
X49149Y25019
X52197Y10033
X48768Y15240
X49022Y13462
X5080Y85090
X79756Y12700
X61976Y15240
X63246Y6350
X67056Y15748
X67691Y13462
X76200Y18034
X82296Y16510
X82296Y19050
X77216Y8890
X74295Y4191
X77597Y25019
X80645Y10033
X77216Y15240
X22860Y82550
X108204Y12700
X90424Y15240
X91694Y6350
X95504Y15748
X96139Y13462
X104648Y18034
X110744Y16510
X110744Y19050
X105664Y8890
X102743Y4191
X106045Y25019
X109093Y10033
X105664Y15240
X105918Y13462
X105664Y85090
X109093Y79883
X106045Y94869
X102743Y74041
X110744Y86360
X104648Y87884
X96139Y83312
X95504Y85598
X76200Y87884
X67691Y83312
X67056Y85598
X63246Y76200
X39243Y83312
X38608Y85598
X34798Y76200
X33528Y85090
X51308Y82550
X77470Y13462
X20574Y83312
X61976Y85090
X79756Y82550
X49022Y83312
X91694Y76200
X90424Y85090
X77470Y83312
X77216Y85090
X80645Y79883
X77597Y94869
X74295Y74041
X77216Y78740
X82296Y88900
X82296Y86360
X20320Y85090
X23749Y79883
X20701Y94869
X17399Y74041
X20320Y78740
X25400Y88900
X25400Y86360
X19304Y87884
X108204Y82550
X105664Y78740
X110744Y88900
X48768Y85090
X52197Y79883
X49149Y94869
X45847Y74041
X48768Y78740
X53848Y88900
X53848Y86360
X47752Y87884
X105918Y83312
X10795Y83312
X10160Y85598
T8
X4572Y10160
X33020Y10160
X61468Y10160
X4572Y80010
X89916Y80010
X33020Y80010
X61468Y80010
X89916Y10160
M30